<svg width="320" height="320" viewBox="0 0 320 320" fill="none" xmlns="http://www.w3.org/2000/svg">
<path d="M115.871 143.929L109.858 111.862L141.424 106.852L175.995 121.883L204.554 115.369L212.571 146.434L198.041 182.007L204.554 207.56L173.991 215.076L138.918 199.043L109.858 206.057L105.85 177.999L115.871 143.929Z" fill="white"/>
<path d="M141.623 106.392L176.044 121.357L204.917 114.773L205.04 115.244L213.056 146.309L213.098 146.469L213.035 146.624L198.566 182.044L205.04 207.437L205.165 207.926L174.11 215.562L173.941 215.604L138.867 199.57L109.44 206.674L105.354 178.07L105.338 177.962L105.369 177.858L115.356 143.902L109.271 111.448L141.345 106.357L141.489 106.334L141.623 106.392ZM110.445 112.276L116.363 143.837L116.385 143.955L116.351 144.07L106.361 178.034L110.276 205.44L138.801 198.555L138.969 198.515L139.127 198.587L174.041 214.548L203.944 207.194L197.556 182.131L197.514 181.971L212.044 146.398L204.19 115.965L176.107 122.371L175.946 122.408L141.357 107.37L110.445 112.276Z" fill="#001915"/>
<path d="M85.1044 24.9236L112.947 18.105L119.773 46.8331C120.075 48.1032 119.956 49.437 119.432 50.633L106.174 80.9384C105.641 82.1564 105.527 83.5167 105.849 84.8065L112.947 113.198L119.766 141.327C120.073 142.592 119.961 143.922 119.447 145.118L106.156 176.039C105.634 177.253 105.527 178.605 105.85 179.885L111.461 202.103C112.279 205.344 110.297 208.63 107.048 209.418L84.78 214.816C83.5387 215.117 82.2338 215.015 81.0545 214.524L50.3176 201.74C49.1606 201.259 47.8822 201.151 46.6609 201.432L23.8282 206.684C20.6667 207.411 17.4984 205.499 16.6683 202.363L10.4981 179.053C10.1463 177.724 10.2606 176.314 10.8221 175.059L24.6001 144.262C25.15 143.032 25.2713 141.654 24.9448 140.348L18.1573 113.198L10.2432 84.9337C9.86051 83.5669 9.9737 82.1087 10.5628 80.8174L24.5861 50.0739C25.145 48.8485 25.2764 47.471 24.9591 46.1621L19.5771 23.9616C18.7935 20.7293 20.783 17.4748 24.0172 16.6987L46.6204 11.2739C47.8666 10.9749 49.1756 11.0818 50.3567 11.5791L81.341 24.6251C82.5309 25.1261 83.8504 25.2307 85.1044 24.9236Z" fill="url(#paint0_linear_3_119)"/>
<path d="M44.9072 1.39268C48.0401 0.771879 51.2924 1.10078 54.2449 2.34387L84.0088 14.8747L120.363 5.9715L129.523 44.5162C130.328 47.9031 130.008 51.4602 128.613 54.6495L115.902 83.7018L122.669 110.768L122.677 110.803L122.686 110.837L129.504 138.967C130.322 142.34 130.024 145.887 128.653 149.075L115.898 178.748L121.177 199.649C123.359 208.292 118.072 217.056 109.409 219.156L87.1412 224.555C83.8312 225.357 80.3513 225.085 77.2066 223.777L47.6551 211.486L26.0743 216.449C17.6435 218.388 9.19464 213.289 6.98098 204.926L0.810968 181.617C-0.127237 178.073 0.17786 174.314 1.67506 170.967L14.887 141.433L8.47627 115.786L0.593722 87.6357C-0.426829 83.9909 -0.124723 80.1026 1.44607 76.6589L14.8939 47.176L9.83847 26.3222C7.74906 17.7028 13.0543 9.02491 21.6784 6.95498L44.2819 1.52968L44.9072 1.39268ZM30.2617 25.5051L34.6976 43.8008C35.5437 47.2912 35.1938 50.965 33.7034 54.2326L20.2869 83.6431L27.8073 110.497L27.8445 110.632L27.8788 110.768L34.6663 137.918C35.5371 141.401 35.2135 145.076 33.7474 148.353L20.5472 177.858L25.3618 196.048L44.415 191.667L45.0276 191.538C48.0966 190.958 51.2734 191.285 54.1657 192.488L83.6927 204.768L100.753 200.632L96.1345 182.339C95.272 178.923 95.5586 175.319 96.9497 172.082L109.711 142.388L103.225 115.628L96.1276 87.2365C95.2679 83.7972 95.5718 80.17 96.9927 76.9221L109.713 47.8434L105.53 30.2376L87.4877 34.6569C84.1438 35.4757 80.6251 35.1962 77.4522 33.8603L47.6796 21.3246L30.2617 25.5051Z" fill="#001915"/>
<path d="M274.771 119.952L297.336 114.735C300.597 113.981 303.845 116.034 304.563 119.303L309.522 141.875C309.795 143.115 309.667 144.411 309.158 145.575L295.877 175.932C295.344 177.15 295.23 178.51 295.552 179.8L302.65 208.192L309.469 236.321C309.776 237.586 309.664 238.916 309.15 240.112L295.859 271.033C295.337 272.246 295.23 273.598 295.554 274.879L301.164 297.096C301.982 300.338 300 303.624 296.751 304.412L274.483 309.81C273.242 310.111 271.937 310.009 270.758 309.518L240.004 296.727C238.857 296.25 237.591 296.14 236.38 296.411L208.062 302.758L200.225 274.068C199.858 272.726 199.968 271.299 200.536 270.029L214.303 239.255C214.853 238.026 214.974 236.648 214.648 235.342L207.86 208.192L199.946 179.927C199.564 178.561 199.677 177.102 200.266 175.811L214.289 145.068C214.848 143.842 214.98 142.465 214.662 141.156L209.28 118.955C208.497 115.723 210.486 112.469 213.72 111.692L236.324 106.268C237.57 105.969 238.879 106.075 240.06 106.573L271.084 119.635C272.249 120.126 273.54 120.237 274.771 119.952Z" fill="url(#paint1_linear_3_119)"/>
<path d="M234.61 96.3863C237.743 95.7655 240.996 96.0944 243.948 97.3375L273.777 109.897L295.079 104.972L295.487 104.882C303.906 103.161 312.198 108.402 314.256 116.746L314.351 117.152L319.309 139.724C320.036 143.033 319.696 146.488 318.339 149.591L305.605 178.695L312.372 205.761L312.38 205.797L312.389 205.831L319.208 233.96C320.025 237.333 319.727 240.881 318.356 244.069L305.601 273.742L310.88 294.643C313.062 303.286 307.776 312.049 299.112 314.15L276.844 319.549C273.534 320.351 270.055 320.079 266.91 318.771L237.33 306.467L200.917 314.628L190.558 276.709C189.58 273.13 189.874 269.323 191.389 265.937L204.59 236.426L198.179 210.779L190.297 182.629C189.276 178.985 189.578 175.096 191.149 171.653L204.597 142.17L199.542 121.316C197.452 112.697 202.757 104.019 211.382 101.949L233.985 96.5233L234.61 96.3863ZM219.965 120.499L224.401 138.794C225.247 142.285 224.897 145.959 223.406 149.226L209.99 178.637L217.51 205.49L217.548 205.625L217.582 205.761L224.369 232.911C225.24 236.395 224.917 240.069 223.451 243.347L210.269 272.811L215.207 290.886L234.189 286.633C237.217 285.954 240.373 286.17 243.275 287.247L243.852 287.474L273.396 299.762L290.457 295.626L285.838 277.332C284.975 273.917 285.262 270.312 286.653 267.076L299.415 237.381L292.928 210.622L285.831 182.23C284.971 178.791 285.275 175.164 286.696 171.916L299.455 142.752L295.645 125.41L277.029 129.715C273.744 130.475 270.303 130.179 267.195 128.871L237.383 116.318L219.965 120.499Z" fill="#001915"/>
<path d="M296.163 85.1043L302.982 112.947L274.254 119.773C272.984 120.075 271.65 119.955 270.454 119.432L240.149 106.173C238.931 105.641 237.57 105.526 236.28 105.849L207.889 112.947L179.76 119.766C178.495 120.073 177.165 119.96 175.969 119.447L145.048 106.156C143.834 105.634 142.482 105.527 141.201 105.85L118.984 111.461C115.743 112.279 112.456 110.297 111.669 107.048L106.271 84.7799C105.97 83.5386 106.072 82.2337 106.562 81.0543L119.347 50.3175C119.828 49.1605 119.936 47.8821 119.655 46.6609L114.403 23.8282C113.676 20.6667 115.588 17.4984 118.724 16.6683L142.034 10.4981C143.363 10.1463 144.772 10.2606 146.027 10.8221L176.825 24.6001C178.054 25.1499 179.433 25.2713 180.739 24.9447L207.889 18.1573L236.153 10.2432C237.52 9.8605 238.978 9.97369 240.27 10.5627L271.013 24.5861C272.238 25.145 273.616 25.2763 274.925 24.959L297.125 19.5771C300.358 18.7935 303.612 20.783 304.388 24.0172L309.813 46.6204C310.112 47.8665 310.005 49.1756 309.508 50.3567L296.462 81.3409C295.961 82.5308 295.856 83.8503 296.163 85.1043Z" fill="url(#paint2_linear_3_119)"/>
<path d="M319.694 44.9072C320.315 48.0401 319.986 51.2924 318.743 54.2449L306.212 84.0087L315.116 120.363L276.571 129.523C273.184 130.328 269.627 130.008 266.438 128.613L237.385 115.902L210.319 122.669L210.284 122.677L210.25 122.685L182.12 129.504C178.747 130.322 175.2 130.023 172.011 128.653L142.339 115.898L121.438 121.176C112.795 123.359 104.031 118.072 101.931 109.409L96.5317 87.1411C95.7293 83.8311 96.0018 80.3512 97.3097 77.2065L109.601 47.655L104.637 26.0742C102.698 17.6435 107.798 9.19463 116.16 6.98097L139.469 0.810966C143.014 -0.127237 146.773 0.17786 150.119 1.67506L179.654 14.887L205.301 8.47626L233.451 0.593722C237.096 -0.426828 240.984 -0.124722 244.428 1.44607L273.911 14.8938L294.765 9.83845C303.384 7.74905 312.062 13.0543 314.132 21.6784L319.557 44.2818L319.694 44.9072ZM295.582 30.2616L277.286 34.6975C273.796 35.5437 270.122 35.1938 266.854 33.7033L237.444 20.2868L210.59 27.8073L210.455 27.8445L210.319 27.8787L183.169 34.6662C179.686 35.5371 176.011 35.2135 172.734 33.7473L143.229 20.5472L125.039 25.3618L129.42 44.4149L129.548 45.0275C130.129 48.0965 129.802 51.2733 128.599 54.1656L116.319 83.6926L120.454 100.753L138.748 96.1344C142.164 95.2719 145.768 95.5584 149.005 96.9495L178.699 109.711L205.459 103.225L233.85 96.1275C237.29 95.2678 240.917 95.5717 244.165 96.9926L273.244 109.713L290.849 105.53L286.43 87.4875C285.611 84.1437 285.891 80.625 287.227 77.4521L299.762 47.6795L295.582 30.2616Z" fill="#001915"/>
<path d="M201.307 271.097C200.806 272.287 200.702 273.606 201.009 274.86L206.387 296.823C207.181 300.064 205.184 303.331 201.937 304.102L179.099 309.529C177.829 309.831 176.495 309.711 175.299 309.188L144.994 295.93C143.776 295.397 142.416 295.283 141.126 295.605L112.734 302.703L84.605 309.522C83.3402 309.829 82.0099 309.717 80.8142 309.203L49.8931 295.912C48.6793 295.39 47.3276 295.283 46.0467 295.606L23.8294 301.217C20.5882 302.035 17.3017 300.053 16.5141 296.804L11.1158 274.536C10.8149 273.295 10.9171 271.99 11.4076 270.81L24.192 240.074C24.6732 238.917 24.7809 237.638 24.5 236.417L17.9442 207.913L46.8789 200.254C48.2081 199.902 49.6177 200.017 50.8728 200.578L81.6706 214.356C82.8997 214.906 84.2778 215.027 85.5841 214.701L112.734 207.913L140.999 199.999C142.365 199.617 143.824 199.73 145.115 200.319L175.858 214.342C177.084 214.901 178.461 215.032 179.77 214.715L201.971 209.333C205.203 208.55 208.457 210.539 209.234 213.773L214.658 236.376C214.958 237.623 214.851 238.932 214.353 240.113L201.307 271.097Z" fill="url(#paint3_linear_3_119)"/>
<path d="M138.639 190.258C142.069 189.378 145.695 189.66 148.949 191.058L149.274 191.202L178.756 204.65L199.61 199.595L200.014 199.502C208.364 197.7 216.673 202.78 218.876 211.033L218.978 211.434L224.402 234.038C225.2 237.361 224.915 240.852 223.589 244.001L211.056 273.763L216.12 294.439C218.237 303.082 212.911 311.795 204.254 313.852L181.416 319.279C178.029 320.084 174.472 319.764 171.282 318.369L142.229 305.657L115.164 312.425L115.13 312.433L115.095 312.441L86.9661 319.26C83.5931 320.078 80.0458 319.779 76.8572 318.409L47.1825 305.654L26.2827 310.932C17.6396 313.115 8.87588 307.828 6.77549 299.165L1.37759 276.897C0.575142 273.587 0.847623 270.107 2.15557 266.963L14.4457 237.411L6.00436 200.708L44.3142 190.567L44.9816 190.406C48.1044 189.72 51.3616 189.984 54.333 191.164L54.9652 191.431L84.4981 204.643L110.155 198.229L138.297 190.35L138.639 190.258ZM115.436 217.563L115.3 217.601L115.164 217.635L88.0142 224.422C84.5308 225.293 80.856 224.97 77.5785 223.503L48.073 210.303L29.8839 215.118L34.2661 234.171C35.015 237.427 34.7272 240.836 33.444 243.922L21.1627 273.449L25.2983 290.509L43.593 285.89C46.7952 285.082 50.1636 285.283 53.239 286.458L53.8506 286.706L83.544 299.468L110.304 292.981L138.695 285.884L139.342 285.736C142.37 285.111 145.515 285.374 148.397 286.495L149.011 286.749L178.088 299.469L195.694 295.286L191.276 277.244C190.457 273.9 190.736 270.381 192.072 267.208L204.607 237.436L200.427 220.018L182.131 224.454C178.641 225.3 174.967 224.95 171.699 223.459L142.288 210.044L115.436 217.563Z" fill="#001915"/>
<defs>
<linearGradient id="paint0_linear_3_119" x1="13.3628" y1="13.3628" x2="320.314" y2="320.314" gradientUnits="userSpaceOnUse">
<stop stop-color="#00342D"/>
<stop offset="1" stop-color="#00CBB0"/>
</linearGradient>
<linearGradient id="paint1_linear_3_119" x1="13.3628" y1="13.3628" x2="320.314" y2="320.314" gradientUnits="userSpaceOnUse">
<stop stop-color="#00342D"/>
<stop offset="1" stop-color="#00CBB0"/>
</linearGradient>
<linearGradient id="paint2_linear_3_119" x1="13.3628" y1="13.3628" x2="320.314" y2="320.314" gradientUnits="userSpaceOnUse">
<stop stop-color="#00342D"/>
<stop offset="1" stop-color="#00CBB0"/>
</linearGradient>
<linearGradient id="paint3_linear_3_119" x1="13.3628" y1="13.3628" x2="320.314" y2="320.314" gradientUnits="userSpaceOnUse">
<stop stop-color="#00342D"/>
<stop offset="1" stop-color="#00CBB0"/>
</linearGradient>
</defs>
</svg>
